<svg xmlns="http://www.w3.org/2000/svg" viewBox="0 0 2827.05 2803.22"><defs><style>.cls-1{fill:#b1daf8;}.cls-2{fill:#0e4478;}.cls-3{opacity:0.7;}.cls-4,.cls-5{fill:#fff;}.cls-4{opacity:0.65;}.cls-6{fill:none;}.cls-7{fill:#bdd0fb;}</style></defs><g id="Calque_2" data-name="Calque 2"><g id="Illustration"><path class="cls-1" d="M2497,2408.92c-58,60.31-112.87,99.21-156.23,129.94-509.64,361.25-1112.69,255.95-1240.85,230.23-189.26-38-555.09-111.37-819.58-418.64C-119.81,1885.58-57.5,1153.19,252.88,669.73c56.78-88.43,356.67-579.26,966.21-658C1588-35.87,2018,60.2,2329.38,317.93,2983,858.93,2936.49,1951.83,2497,2408.92Z"/><polygon class="cls-2" points="1197.85 1953.65 1137.11 2498.41 1841.81 2498.41 1750.03 1953.65 1197.85 1953.65"/><path class="cls-2" d="M14.07,611.49V1859.12a189.25,189.25,0,0,0,184.38,189.21c455.7,11.75,2049.51,40.25,2483.3,33.85a139.25,139.25,0,0,0,137.1-135.3c8.37-289.84,22-986.81-28.32-1310.39a143.31,143.31,0,0,0-137-121.3c-381.81-12.22-2071.35-51-2504.94-41.26A137.57,137.57,0,0,0,14.07,611.49Z"/><path class="cls-3" d="M92.35,605.42V1790.75a109.66,109.66,0,0,0,108,109.65l2419,29.88A106.72,106.72,0,0,0,2727.66,1824l4-1174.75a78,78,0,0,0-76.15-78.31L179,520.87A84.57,84.57,0,0,0,92.35,605.42Z"/><path class="cls-4" d="M2745.87,1978.91h-.06L92.3,1933.7a3.41,3.41,0,0,1-3.35-3.46,3.52,3.52,0,0,1,3.46-3.35l2653.51,45.22a3.4,3.4,0,0,1-.05,6.8Z"/><path class="cls-4" d="M1445.29,2034.13a31,31,0,1,1,31-31A31.05,31.05,0,0,1,1445.29,2034.13Zm0-55.22a24.21,24.21,0,1,0,24.2,24.21A24.24,24.24,0,0,0,1445.29,1978.91Z"/><path class="cls-2" d="M1993.61,2609.86H962.22c-28,0-49.06-19.94-43.64-41.37l13.23-52.34c4-15.74,21.3-27.3,41.87-27.94l994.29-31c21.49-.67,40.51,10.73,45.19,27.09l23.86,83.37C2043.22,2589.3,2022.08,2609.86,1993.61,2609.86Z"/><path class="cls-5" d="M1517.44,2502.43a3.4,3.4,0,0,1,0-6.8l42.6-.63h0a3.41,3.41,0,0,1,0,6.81l-42.6.62Z"/><path class="cls-5" d="M956.76,2581.05a3.44,3.44,0,0,1-3.36-3.94l6.08-38.07a42.5,42.5,0,0,1,41.42-35.86l451.91-6.61h0a3.41,3.41,0,0,1,.05,6.81L1001,2510a35.72,35.72,0,0,0-34.8,30.13l-6.08,38.07A3.41,3.41,0,0,1,956.76,2581.05Z"/><path class="cls-2" d="M1340.6,474.35l-728,1223.18c-16,26.85,4.91,59.71,38.14,60l1443.08,11.88c33.35.27,54.86-32.45,39.16-59.58l-715.1-1235C1401.46,446.36,1357.39,446.13,1340.6,474.35Z"/><path class="cls-6" d="M1344.28,547.42,683.13,1658.31c-14.52,24.39,4.45,54.23,34.63,54.48l1310.6,10.78c30.3.25,49.84-29.47,35.57-54.1L1414.48,547.79C1399.55,522,1359.53,521.79,1344.28,547.42Z"/><path class="cls-7" d="M1247.52,1237.51l-32.3.42v57.67l-55.74.93v-57.88l-116.43,1.51v-41.37l119.58-181.54,52.59,0v174.94l32.3-.32Zm-88-44.71v-47.37q0-11.85.93-34.39t1.48-26.18h-1.48a216.21,216.21,0,0,1-16.5,30.64l-49.9,78Z"/><path class="cls-7" d="M1460.55,1154.54q0,71.76-22.39,106.57t-69.39,35.7q-45.7.78-69.1-34.8t-23.41-106q0-73.38,22.78-108.2t69.73-34.65q45.54.06,68.67,36.13T1460.55,1154.54Zm-128.47,1q0,50.84,8.42,72.73t28.27,21.61q19.47-.27,28.08-22.59t8.62-72.32q0-50.58-8.71-72.65t-28-22.06q-19.66,0-28.18,22.23T1332.08,1155.54Z"/><path class="cls-7" d="M1682.07,1231.86l-30.53.39v56.07l-52.67.88v-56.26l-110,1.43v-40.22l113-176.43,49.7,0v170.07l30.53-.31Zm-83.2-43.49v-46q0-11.52.87-33.43t1.4-25.45h-1.4a211.79,211.79,0,0,1-15.59,29.79L1537,1189Z"/><path class="cls-7" d="M1121.77,1539.59l-86,2.76V1388.73l86-1.93v26.55l-54.23,1.3v33.66L1118,1447v26.55l-50.46,1.41v39.53l54.23-1.64Z"/><path class="cls-7" d="M1189.14,1479.05v58.38l-31.28,1V1386l43-1q29.93-.68,44.22,10.26t14.28,33.8a42.19,42.19,0,0,1-7.08,24q-7.1,10.61-20.11,16.88,33,50.17,43,64.73l-34.34,1.1-35-57.2Zm0-26.22,10.06-.27q14.77-.39,21.8-5.67t7-16.17q0-10.79-7.17-15.18t-22.25-4l-9.46.23Z"/><path class="cls-7" d="M1329.18,1475.08v57.86l-30.72,1V1382.85l42.19-.94q29.4-.66,43.43,10.18t14,33.5a42,42,0,0,1-7,23.75,48.44,48.44,0,0,1-19.75,16.73q32.43,49.74,42.19,64.16l-33.73,1.09-34.37-56.7Zm0-26,9.89-.27q14.51-.37,21.41-5.61t6.89-16q0-10.7-7-15t-21.85-4l-9.3.22Z"/><path class="cls-7" d="M1565,1450.93q0,36.87-17.29,57.21t-49.78,21.43q-32.57,1-50.1-18.34t-17.55-56.83q0-37.41,17.6-57.54t50.24-20.82q32.57-.72,49.73,18.62T1565,1450.93Zm-103.06,2.81q0,25,9,37.46t27,11.85q35.85-1.1,35.82-51.27t-35.63-49.42q-17.91.44-27,13.37T1461.89,1453.74Z"/><path class="cls-7" d="M1628.4,1466.6v56.75l-29.55,1V1376.13l40.58-.9q28.27-.64,41.79,10t13.49,32.87a41.83,41.83,0,0,1-6.69,23.29,46.89,46.89,0,0,1-19,16.4q31.18,48.8,40.58,63l-32.45,1-33.06-55.63Zm0-25.48,9.51-.26q14-.36,20.59-5.49t6.64-15.72q0-10.49-6.78-14.76t-21-3.94l-8.94.21Z"/></g></g></svg>