<svg xmlns="http://www.w3.org/2000/svg" xmlns:xlink="http://www.w3.org/1999/xlink" viewBox="0 0 449.09 357.32"><defs><style>.cls-1{fill:none;}.cls-13,.cls-2,.cls-3,.cls-5{fill:#0e4478;}.cls-2{opacity:0.8;}.cls-4{fill:#010a1e;}.cls-5{opacity:0.7;}.cls-6{fill:#130751;}.cls-7{fill:#b1daf8;}.cls-8{fill:#18dcff;}.cls-9{fill:#e4eafe;}.cls-10,.cls-15{fill:#fff;}.cls-10{opacity:0.24;}.cls-11{font-size:21.36px;fill:#fbfffd;font-family:Montserrat-Black, Montserrat Black;font-weight:800;}.cls-12{fill:#dff2ff;}.cls-13{opacity:0.6;}.cls-14{clip-path:url(#clip-path);}</style><clipPath id="clip-path"><rect class="cls-1" x="215.1" y="7.34" width="25.18" height="41.71" rx="3.83"/></clipPath></defs><g id="Calque_2" data-name="Calque 2"><g id="OBJECTS"><rect class="cls-2" x="25.05" y="341.78" width="414.95" height="15.54"/><polygon class="cls-3" points="387.29 286.76 77.76 286.76 25.05 341.78 440 341.78 387.29 286.76"/><ellipse class="cls-4" cx="230.61" cy="315.3" rx="153.13" ry="14.33"/><polygon class="cls-3" points="199.93 265.01 193.33 310.8 271.71 310.8 264.29 265.01 199.93 265.01"/><rect class="cls-3" x="166.11" y="317.4" width="132.84" height="3.3"/><polygon class="cls-5" points="193.33 310.8 166.1 317.4 298.94 317.4 271.71 310.8 193.33 310.8"/><path class="cls-6" d="M92.08,69.92H373A12.68,12.68,0,0,1,385.65,82.6V241.43a0,0,0,0,1,0,0H79.4a0,0,0,0,1,0,0V82.6A12.68,12.68,0,0,1,92.08,69.92Z"/><path class="cls-3" d="M79.4,241.43H385.65a0,0,0,0,1,0,0v16.72A12.63,12.63,0,0,1,373,270.79H92A12.63,12.63,0,0,1,79.4,258.15V241.43A0,0,0,0,1,79.4,241.43Z"/><rect class="cls-7" x="90.7" y="79.82" width="283.66" height="150.99"/><path class="cls-6" d="M238.51,254.94a6,6,0,1,1-6-6A6,6,0,0,1,238.51,254.94Z"/><rect class="cls-8" x="135.42" y="97.05" width="100.44" height="117.24"/><rect class="cls-9" x="149.93" y="113.04" width="71.41" height="6.4"/><rect class="cls-9" x="149.93" y="124.77" width="71.41" height="6.39"/><rect class="cls-9" x="149.93" y="136.49" width="71.41" height="6.4"/><rect class="cls-9" x="149.93" y="148.21" width="71.41" height="6.4"/><rect class="cls-9" x="149.93" y="159.94" width="71.41" height="6.39"/><rect class="cls-9" x="149.93" y="171.66" width="71.41" height="6.4"/><rect class="cls-9" x="149.93" y="183.39" width="71.41" height="6.4"/><rect class="cls-9" x="149.93" y="195.11" width="71.41" height="6.4"/><path class="cls-4" d="M303.49,139.58V129.36h-6.36a21.94,21.94,0,0,0-2.64-6.48l4.53-4.53-7.22-7.22-4.5,4.49a21.8,21.8,0,0,0-6.45-2.71V106.5H270.63v6.35a22.21,22.21,0,0,0-6.48,2.64L259.62,111l-7.23,7.23,4.5,4.49a22.15,22.15,0,0,0-2.72,6.46h-6.41v10.21h6.36a22.27,22.27,0,0,0,2.64,6.49l-4.53,4.53,7.23,7.22L264,153.1a22.18,22.18,0,0,0,6.45,2.71v6.41h10.22v-6.36a21.56,21.56,0,0,0,6.48-2.64l4.54,4.53,7.22-7.22-4.5-4.5a21.71,21.71,0,0,0,2.72-6.45Zm-27.86,4.6a9.82,9.82,0,1,1,9.82-9.82A9.82,9.82,0,0,1,275.63,144.18Z"/><path class="cls-4" d="M341.59,170.91v-8h-5a17.06,17.06,0,0,0-2.08-5.1l3.57-3.57-5.69-5.69-3.54,3.54a17.45,17.45,0,0,0-5.08-2.14v-5h-8v5a17.23,17.23,0,0,0-5.11,2.08l-3.57-3.57-5.68,5.69,3.54,3.54a17.18,17.18,0,0,0-2.14,5.08h-5v8h5a17.23,17.23,0,0,0,2.08,5.11l-3.57,3.57,5.69,5.68,3.54-3.54a17,17,0,0,0,5.08,2.14v5.05h8v-5a17.23,17.23,0,0,0,5.11-2.08l3.56,3.57,5.69-5.69L334.41,176a17,17,0,0,0,2.14-5.08Zm-21.93,3.62a7.73,7.73,0,1,1,7.73-7.73A7.73,7.73,0,0,1,319.66,174.53Z"/><path class="cls-4" d="M297.56,189.52v-5.7H294a12.42,12.42,0,0,0-1.47-3.63l2.53-2.53-4-4-2.51,2.51a12.35,12.35,0,0,0-3.6-1.52V171h-5.71v3.55a12.27,12.27,0,0,0-3.62,1.48l-2.53-2.53-4,4,2.51,2.51a12.39,12.39,0,0,0-1.51,3.61h-3.59v5.71H270a12.47,12.47,0,0,0,1.47,3.62l-2.53,2.53,4,4,2.51-2.51a12,12,0,0,0,3.6,1.52v3.58h5.71v-3.55a12,12,0,0,0,3.62-1.48l2.53,2.53,4-4-2.51-2.51a12.27,12.27,0,0,0,1.51-3.61ZM282,192.09a5.49,5.49,0,1,1,5.48-5.48A5.48,5.48,0,0,1,282,192.09Z"/><polygon class="cls-10" points="225.31 79.82 164.32 230.81 198.08 230.81 258.52 79.82 225.31 79.82"/><polygon class="cls-10" points="279.51 79.82 222.58 230.81 236.14 230.81 294.07 79.82 279.51 79.82"/><circle class="cls-5" cx="393.16" cy="67.68" r="36.39" transform="translate(67.3 297.83) rotate(-45)"/><path class="cls-3" d="M365.42,44.14a36.38,36.38,0,0,0,53,49.73C376.73,88,367.25,60.68,365.42,44.14Z"/><text class="cls-11" transform="translate(366.8 73.97)">CMS</text><path class="cls-3" d="M419.63,292.94h2.68a28,28,0,0,0,0-55.87h-2.66l0,0a28,28,0,0,0,0,55.85Zm-16.89-9.85a31.08,31.08,0,0,1,5.72-3.28,33.42,33.42,0,0,0,8,10.57A25.82,25.82,0,0,1,402.74,283.09Zm17.3,7.47A32.13,32.13,0,0,1,410.47,279a32.11,32.11,0,0,1,9.57-1.91Zm0-15.63A34.91,34.91,0,0,0,409.6,277a31.75,31.75,0,0,1-2.24-10H420Zm0-10.09H407.3A32,32,0,0,1,409,254.51a34.17,34.17,0,0,0,11,2.33Zm5.42,25.61a33.51,33.51,0,0,0,8.23-11,31,31,0,0,1,6.15,3.34A25.78,25.78,0,0,1,425.46,290.45Zm15.81-9.33a34,34,0,0,0-6.75-3.7A34,34,0,0,0,436.75,267h10.1A25.62,25.62,0,0,1,441.27,281.12Zm.81-31.15a25.59,25.59,0,0,1,4.85,14.86H436.82a34.32,34.32,0,0,0-1.77-10.76A34.2,34.2,0,0,0,442.08,250Zm-1.34-1.7A31.29,31.29,0,0,1,434.3,252a33.84,33.84,0,0,0-8.85-12.46A25.71,25.71,0,0,1,440.74,248.27ZM422.2,239.7a31.74,31.74,0,0,1,10.09,13.14,31.77,31.77,0,0,1-10.09,1.86Zm0,17.17a34.13,34.13,0,0,0,10.83-2,32.33,32.33,0,0,1,1.63,10H422.2Zm0,10.14h12.39a32,32,0,0,1-2.1,9.67,34.45,34.45,0,0,0-10.29-1.76Zm0,10.06a32.18,32.18,0,0,1,9.45,1.6,32,32,0,0,1-9.45,11.66ZM420,239.47v15.2a31.73,31.73,0,0,1-10.23-2.18A31.84,31.84,0,0,1,420,239.47Zm-3.62.18a33.87,33.87,0,0,0-8.59,12,31.76,31.76,0,0,1-6-3.72A25.8,25.8,0,0,1,416.42,239.65Zm-16,9.93a34.64,34.64,0,0,0,6.58,4.07,34.44,34.44,0,0,0-1.91,11.2h-9.81A25.54,25.54,0,0,1,400.46,249.58ZM395.4,267h9.8a34,34,0,0,0,2.39,10.81,33.22,33.22,0,0,0-6.31,3.65A25.51,25.51,0,0,1,395.4,267Z"/><path class="cls-5" d="M142.55,41.38l-.73,0a26.22,26.22,0,0,0,.73-6.12A25.88,25.88,0,0,0,100.71,14.9,25.89,25.89,0,0,0,52,20.35a25.88,25.88,0,0,0-34.23,21h-.23A19.8,19.8,0,0,0,.31,51.4,2.37,2.37,0,0,0,2.38,55H157.7a2.37,2.37,0,0,0,2.06-3.55A19.78,19.78,0,0,0,142.55,41.38Z"/><polygon class="cls-3" points="79.63 60.28 62.14 29.98 44.64 60.28 56.3 60.28 56.3 98.12 67.97 98.12 67.97 60.28 79.63 60.28"/><polygon class="cls-12" points="80.44 67.82 97.94 98.12 115.43 67.82 103.77 67.82 103.77 29.98 92.1 29.98 92.1 67.82 80.44 67.82"/><rect class="cls-2" x="10.22" y="248.31" width="77.19" height="44.94"/><polygon class="cls-13" points="10.21 293.25 48.81 268.02 87.41 293.25 10.21 293.25"/><polygon class="cls-3" points="10.21 248.31 48.81 279.3 87.41 248.31 10.21 248.31"/><rect class="cls-6" x="212.6" y="4.98" width="30.18" height="50" rx="4.59"/><g class="cls-14"><rect class="cls-7" x="215.1" y="7.34" width="25.18" height="41.71" rx="3.83"/><polygon class="cls-15" points="209.94 39.29 238.34 1.13 245.15 1.13 209.94 49.06 209.94 39.29"/><polygon class="cls-15" points="212.6 54.38 246.33 7.34 246.33 11.78 212.6 59.71 212.6 54.38"/></g><path class="cls-15" d="M229.17,51.72a1.48,1.48,0,1,1-1.48-1.48A1.48,1.48,0,0,1,229.17,51.72Z"/><rect class="cls-15" x="236.18" y="16.37" width="40.53" height="30.8"/><polygon class="cls-8" points="248.73 40.71 240.01 31.98 248.85 23.14 250.34 24.62 242.97 31.98 250.22 39.23 248.73 40.71"/><polygon class="cls-8" points="263.71 40.71 262.23 39.23 269.59 31.86 262.35 24.62 263.83 23.14 272.56 31.86 263.71 40.71"/><rect class="cls-8" x="247.94" y="31.21" width="16.69" height="2.1" transform="translate(128.37 256.67) rotate(-67.49)"/><rect class="cls-8" x="236.18" y="12.78" width="40.53" height="3.59"/></g></g></svg>